<svg width="2816" height="1534" fill="none" xmlns="http://www.w3.org/2000/svg"><g opacity=".2"><path d="M1273.74 864.038c-26.77 103.7-192.33 198.242-202.42 298.882-10.1 100.64-99.2 216.54-205.4 201.29-106.199-15.24-142.743 27.45-191.463 54.9-48.721 27.44-261.898-25.24-164.45-195.61 97.448-170.37 113.149-162.35 101.507-291.488-11.643-129.14-66.422-176.796-11.61-329.282 54.813-152.486 379.772-142.677 379.772-142.677l294.064 403.985Z" fill="url('#paint0_linear_82_824')"/><path d="M429.148 1533.36c-110.269-13.77-203.324-132.95-221.938-220.11-11.52-53.92-101.217-82.44-139.244-123.55-49.144-53.13-80.357-124.62-63.232-201.104 13.99-62.531 44.511-120.058 84.373-168.351 41.227-49.968 44.346-131.905 29.624-188.212-15.215-58.079-113.347-128.319-94.337-232.968 26.843-147.791 171.888-223.15 308.729-121.27 173.255 129.003 647.035 389.943 674.717 610.719 42.09 335.756-349.792 151.546-388.798 482.236-9.776 82.61-117.445 171.66-189.894 162.61Z" fill="url('#paint1_linear_82_824')"/><path opacity=".61" d="M1136.03 669c-106.19 12.717-221.859 164.403-322.805 160.986-100.946-3.418-227.532 69.527-226.628 176.964.905 107.44-217.216 81.3-226.145 136.55-32.023 198.04 165.73 27.9 305.866 165.25 98.55 96.56 187.754-20.34 313.997 8.46 126.245 28.81 164.805 82.96 324.295 55.53 116.02-19.97 214.23-156.29 208.81-278.21-7.32-164.44-146.13-322.69-146.13-322.69L1136.03 669Z" fill="url('#paint2_linear_82_824')"/></g><g opacity=".2"><path d="M1887.72 461.054c19.49 75.526 140.07 144.386 147.43 217.683 7.35 73.298 72.24 157.711 149.59 146.605 77.35-11.106 103.96 19.992 139.45 39.98 35.48 19.988 190.74-18.38 119.77-142.465-70.97-124.085-82.41-118.241-73.93-212.296 8.48-94.056 48.38-128.764 8.45-239.823-39.92-111.058-276.59-103.914-276.59-103.914l-214.17 294.23Z" fill="url('#paint3_linear_82_824')"/><path d="M2502.85 948.536c80.31-10.033 148.08-96.831 161.64-160.315 8.39-39.268 73.72-60.043 101.42-89.98 35.79-38.698 58.52-90.767 46.05-146.469-10.19-45.543-32.42-87.441-61.45-122.614-30.03-36.392-32.3-96.068-21.58-137.078 11.08-42.3 82.55-93.457 68.71-169.675-19.55-107.64-125.19-162.525-224.85-88.323-126.19 93.955-471.25 284.003-491.41 444.798-30.66 244.537 254.76 110.377 283.17 351.221 7.12 60.169 85.53 125.028 138.3 118.435Z" fill="url('#paint4_linear_82_824')"/><path opacity=".61" d="M1988.01 319.004c77.34 9.262 161.59 119.738 235.11 117.249 73.52-2.489 165.71 50.638 165.06 128.889-.66 78.252 158.2 59.212 164.7 99.452 23.33 144.237-120.7 20.32-222.77 120.35-71.77 70.332-136.74-14.813-228.69 6.166-91.94 20.98-120.03 60.421-236.19 40.438-84.49-14.543-156.02-113.827-152.07-202.625 5.33-119.762 106.42-235.019 106.42-235.019l168.43-74.9Z" fill="url('#paint5_linear_82_824')"/></g><defs><linearGradient id="paint0_linear_82_824" x1="474.546" y1="1305.16" x2="1036.94" y2="692.964" gradientUnits="userSpaceOnUse"><stop stop-color="#D9D9D9" stop-opacity="0"/><stop offset=".484"/><stop offset=".995" stop-color="#C4C4C4" stop-opacity=".49"/></linearGradient><linearGradient id="paint1_linear_82_824" x1="69.234" y1="1328.27" x2="734.994" y2="372.3" gradientUnits="userSpaceOnUse"><stop stop-color="#C9C9C9" stop-opacity="0"/><stop offset="1" stop-color="#C9C9C9" stop-opacity=".53"/></linearGradient><linearGradient id="paint2_linear_82_824" x1="1051.53" y1="1644.55" x2="852.373" y2="771.754" gradientUnits="userSpaceOnUse"><stop stop-color="#C9C9C9" stop-opacity="0"/><stop offset="1" stop-color="#C9C9C9"/></linearGradient><linearGradient id="paint3_linear_82_824" x1="2469.79" y1="782.329" x2="2060.19" y2="336.457" gradientUnits="userSpaceOnUse"><stop stop-color="#D9D9D9" stop-opacity="0"/><stop offset=".484"/><stop offset=".995" stop-color="#C4C4C4" stop-opacity=".49"/></linearGradient><linearGradient id="paint4_linear_82_824" x1="2764.98" y1="799.163" x2="2280.1" y2="102.912" gradientUnits="userSpaceOnUse"><stop stop-color="#C9C9C9" stop-opacity="0"/><stop offset="1" stop-color="#C9C9C9" stop-opacity=".53"/></linearGradient><linearGradient id="paint5_linear_82_824" x1="2049.55" y1="1029.52" x2="2194.61" y2="393.842" gradientUnits="userSpaceOnUse"><stop stop-color="#C9C9C9" stop-opacity="0"/><stop offset="1" stop-color="#C9C9C9"/></linearGradient></defs></svg>