<svg aria-hidden="true" style="width:0;height:0;position:absolute;overflow:hidden" xmlns="http://www.w3.org/2000/svg"><defs><symbol id="icon-discord" viewBox="0 0 42 32"><path fill="#fff" style="fill:var(--color1,#fff)" d="M35.642 2.703c4.748 6.974 7.093 14.84 6.216 23.895a.14.14 0 0 1-.055.097c-3.595 2.637-7.079 4.238-10.513 5.3a.134.134 0 0 1-.148-.05 28.124 28.124 0 0 1-2.146-3.487.135.135 0 0 1 .071-.187 21.532 21.532 0 0 0 3.281-1.559.134.134 0 0 0 .012-.223 17.524 17.524 0 0 1-.653-.511.13.13 0 0 0-.137-.017c-6.799 3.137-14.248 3.137-21.127 0a.132.132 0 0 0-.136.018c-.21.173-.431.345-.651.51a.134.134 0 0 0 .013.223c1.047.6 2.136 1.128 3.28 1.561a.134.134 0 0 1 .073.185 24.927 24.927 0 0 1-2.147 3.488.136.136 0 0 1-.148.048C7.309 30.933 3.825 29.332.23 26.695a.146.146 0 0 1-.055-.098c-.733-7.833.76-15.764 6.21-23.895a.119.119 0 0 1 .056-.048A34.655 34.655 0 0 1 14.998.003a.137.137 0 0 1 .138.065c.371.656.795 1.498 1.082 2.185a32.054 32.054 0 0 1 9.611 0c.287-.673.696-1.529 1.066-2.185a.127.127 0 0 1 .137-.065 34.7 34.7 0 0 1 8.557 2.651c.024.01.043.027.055.05zM17.826 17.596c.033-2.316-1.657-4.232-3.778-4.232-2.104 0-3.778 1.899-3.778 4.232s1.707 4.231 3.778 4.231c2.105 0 3.778-1.899 3.778-4.231zm13.969 0c.033-2.316-1.657-4.232-3.778-4.232-2.105 0-3.778 1.899-3.778 4.232s1.707 4.231 3.778 4.231c2.121 0 3.778-1.899 3.778-4.231z"/></symbol><symbol id="icon-medium" viewBox="0 0 56 32"><path fill="#fff8f8" style="fill:var(--color2,#fff8f8)" d="M31.782 16c0 8.836-7.115 16-15.891 16S0 24.835 0 16 7.115 0 15.891 0s15.891 7.164 15.891 16zm17.433 0c0 8.318-3.557 15.063-7.946 15.063S33.323 24.318 33.323 16c0-8.318 3.557-15.063 7.945-15.063S49.214 7.68 49.214 16zm7.13 0c0 7.451-1.251 13.494-2.794 13.494S50.757 23.452 50.757 16s1.251-13.494 2.794-13.494S56.345 8.547 56.345 16z"/></symbol><symbol id="icon-telegram" viewBox="0 0 39 32"><path fill="#fff" style="fill:var(--color3,#fff)" d="M2.375 13.936s17.132-7.025 23.074-9.498C27.727 3.449 35.451.283 35.451.283s3.565-1.385 3.268 1.979c-.099 1.385-.891 6.233-1.684 11.477-1.188 7.42-2.476 15.533-2.476 15.533s-.198 2.276-1.882 2.671c-1.683.396-4.456-1.385-4.952-1.781-.396-.297-7.427-4.749-10.002-6.926-.693-.594-1.485-1.781.099-3.166 3.565-3.265 7.823-7.322 10.398-9.894 1.188-1.187 2.377-3.958-2.575-.594-7.031 4.848-13.963 9.399-13.963 9.399s-1.585.989-4.555.099C4.156 18.19.69 17.002.69 17.002s-2.377-1.484 1.684-3.067z"/></symbol><symbol id="icon-x" viewBox="0 0 34 32"><path fill="#fff" style="fill:var(--color4,#fff)" d="m.083 0 13.2 17.65L-.001 32h2.99l11.63-12.564L24.015 32h10.174L20.246 13.357 32.61 0h-2.99L18.91 11.571 10.256 0H.082zM4.48 2.202h4.674l20.639 27.595h-4.674L4.48 2.202z"/></symbol></defs></svg>