<svg aria-hidden="true" style="width:0;height:0;position:absolute;overflow:hidden" xmlns="http://www.w3.org/2000/svg"><defs><symbol id="icon-Medium" viewBox="0 0 55 32"><path d="M31.086 15.65c0 8.643-6.959 15.649-15.543 15.649S0 24.291 0 15.65C0 7.009 6.959 0 15.543 0s15.543 7.007 15.543 15.65zm17.051 0c0 8.135-3.479 14.733-7.772 14.733s-7.772-6.598-7.772-14.733c0-8.136 3.479-14.733 7.771-14.733s7.772 6.596 7.772 14.733zm6.974 0c0 7.287-1.224 13.199-2.733 13.199s-2.733-5.91-2.733-13.199 1.224-13.199 2.733-13.199c1.509 0 2.733 5.909 2.733 13.199z"/></symbol><symbol id="icon-Telegram" viewBox="0 0 32 32"><path fill="#34aadf" style="fill:var(--color1,#34aadf)" d="M32 16c0 8.837-7.163 16-16 16S0 24.837 0 16 7.163 0 16 0s16 7.163 16 16zm-14.566-4.578c-2.775 1.156-10.775 4.439-10.775 4.439-1.896.74-.786 1.434-.786 1.434s1.619.555 3.006.971c1.387.416 2.127-.046 2.127-.046s3.237-2.127 6.52-4.393c2.312-1.572 1.757-.277 1.202.277a177.68 177.68 0 0 1-4.855 4.624c-.74.647-.37 1.202-.046 1.48.941.797 3.159 2.245 4.165 2.903.279.182.465.304.505.334.231.185 1.526 1.017 2.312.832s.879-1.249.879-1.249.601-3.792 1.156-7.26c.103-.681.206-1.348.301-1.969.249-1.616.451-2.927.485-3.395.139-1.572-1.526-.925-1.526-.925s-3.607 1.48-4.671 1.942z"/></symbol><symbol id="icon-Discord" viewBox="0 0 41 32"><path fill="#5865f2" style="fill:var(--color2,#5865f2)" d="M34.882 2.703c4.647 6.974 6.941 14.84 6.084 23.895a.139.139 0 0 1-.054.097c-3.519 2.637-6.928 4.238-10.289 5.3a.129.129 0 0 1-.144-.05 28.06 28.06 0 0 1-2.1-3.487.136.136 0 0 1 .07-.187 20.872 20.872 0 0 0 3.211-1.559.136.136 0 0 0 .011-.223 16.24 16.24 0 0 1-.639-.511.124.124 0 0 0-.134-.017c-6.654 3.137-13.944 3.137-20.677 0a.126.126 0 0 0-.133.018c-.206.173-.422.345-.637.51a.136.136 0 0 0 .013.223c1.025.6 2.091 1.128 3.21 1.561a.134.134 0 0 1 .071.185 25.022 25.022 0 0 1-2.101 3.488.132.132 0 0 1-.145.048c-3.345-1.061-6.755-2.662-10.273-5.3a.144.144 0 0 1-.053-.098c-.717-7.833.744-15.764 6.078-23.895a.117.117 0 0 1 .055-.048A33.383 33.383 0 0 1 14.681.002a.134.134 0 0 1 .135.065c.363.656.778 1.498 1.059 2.185a30.71 30.71 0 0 1 9.406 0c.281-.673.681-1.529 1.043-2.185.013-.024.033-.043.057-.055s.051-.015.078-.01a33.418 33.418 0 0 1 8.374 2.651c.023.01.042.027.053.05zM17.446 17.596c.032-2.316-1.622-4.232-3.698-4.232-2.059 0-3.697 1.899-3.697 4.232s1.67 4.231 3.697 4.231c2.06 0 3.698-1.899 3.698-4.231zm13.671 0c.032-2.316-1.622-4.232-3.697-4.232-2.06 0-3.698 1.899-3.698 4.232s1.67 4.231 3.698 4.231c2.076 0 3.697-1.899 3.697-4.231z"/></symbol><symbol id="icon-Twitter" viewBox="0 0 40 32"><path fill="#1da1f2" style="fill:var(--color3,#1da1f2)" d="M12.518 32c15.021 0 23.236-12.31 23.236-22.985 0-.35-.007-.698-.023-1.044a16.527 16.527 0 0 0 4.074-4.183 16.392 16.392 0 0 1-4.69 1.272A8.12 8.12 0 0 0 38.706.592a16.481 16.481 0 0 1-5.186 1.961A8.199 8.199 0 0 0 27.559.001c-4.51 0-8.167 3.618-8.167 8.077 0 .634.072 1.251.212 1.842A23.275 23.275 0 0 1 2.77 1.48a7.998 7.998 0 0 0-1.106 4.06c0 2.803 1.442 5.277 3.634 6.724a8.184 8.184 0 0 1-3.699-1.01l-.001.103c0 3.912 2.815 7.179 6.552 7.919a8.239 8.239 0 0 1-3.688.138c1.04 3.21 4.054 5.546 7.629 5.611a16.497 16.497 0 0 1-10.143 3.458A16.69 16.69 0 0 1 0 28.371 23.297 23.297 0 0 0 12.519 32z"/></symbol></defs></svg>