<svg aria-hidden="true" style="width:0;height:0;position:absolute;overflow:hidden" xmlns="http://www.w3.org/2000/svg"><defs><symbol id="icon-close" viewBox="0 0 32 32"><path fill="#fff" style="fill:var(--color1,#fff)" d="M3.772 1.257 30.59 28.075a1.778 1.778 0 0 1-2.514 2.514L1.258 3.771a1.778 1.778 0 0 1 2.514-2.514z"/><path fill="#fff" style="fill:var(--color1,#fff)" d="M28.22 1.257 1.402 28.075a1.778 1.778 0 0 0 2.514 2.514L30.734 3.771a1.778 1.778 0 0 0-2.514-2.514z"/></symbol><symbol id="icon-burger" viewBox="0 0 49 32"><path fill="#fff" style="fill:var(--color1,#fff)" d="M2.088 0H46.61a2.087 2.087 0 1 1 0 4.174H2.088a2.087 2.087 0 1 1 0-4.174zM2.088 13.913H46.61a2.087 2.087 0 1 1 0 4.174H2.088a2.087 2.087 0 1 1 0-4.174zM2.088 27.826H46.61a2.087 2.087 0 1 1 0 4.174H2.088a2.087 2.087 0 1 1 0-4.174z"/></symbol></defs></svg>