<svg aria-hidden="true" style="position: absolute; width: 0; height: 0; overflow: hidden;" version="1.1" xmlns="http://www.w3.org/2000/svg" xmlns:xlink="http://www.w3.org/1999/xlink">
<defs>
<symbol id="icon-close" viewBox="0 0 32 32">
<path fill="#fff" style="fill: var(--color1, #fff)" d="M3.772 1.257l26.818 26.818c0.694 0.694 0.694 1.82 0 2.514s-1.82 0.694-2.514 0l-26.818-26.818c-0.694-0.694-0.694-1.82 0-2.514s1.82-0.694 2.514 0z"></path>
<path fill="#fff" style="fill: var(--color1, #fff)" d="M28.22 1.257l-26.818 26.818c-0.694 0.694-0.694 1.82 0 2.514s1.82 0.694 2.514 0l26.818-26.818c0.694-0.694 0.694-1.82 0-2.514s-1.82-0.694-2.514 0z"></path>
</symbol>
<symbol id="icon-burger" viewBox="0 0 49 32">
<path fill="#fff" style="fill: var(--color1, #fff)" d="M2.088 0h44.522c1.153 0 2.087 0.934 2.087 2.087s-0.934 2.087-2.087 2.087h-44.522c-1.153 0-2.087-0.934-2.087-2.087s0.934-2.087 2.087-2.087z"></path>
<path fill="#fff" style="fill: var(--color1, #fff)" d="M2.088 13.913h44.522c1.153 0 2.087 0.934 2.087 2.087s-0.934 2.087-2.087 2.087h-44.522c-1.153 0-2.087-0.934-2.087-2.087s0.934-2.087 2.087-2.087z"></path>
<path fill="#fff" style="fill: var(--color1, #fff)" d="M2.088 27.826h44.522c1.153 0 2.087 0.934 2.087 2.087s-0.934 2.087-2.087 2.087h-44.522c-1.153 0-2.087-0.934-2.087-2.087s0.934-2.087 2.087-2.087z"></path>
</symbol>
</defs>
</svg>
