<svg
  aria-hidden="true"
  style="position: absolute; width: 0; height: 0; overflow: hidden;"
  version="1.1"
  xmlns="http://www.w3.org/2000/svg"
  xmlns:xlink="http://www.w3.org/1999/xlink"
>
<defs>
<symbol id="icon-Medium" viewBox="0 0 55 32">
<path
        d="M31.086 15.65c0 8.643-6.959 15.649-15.543 15.649s-15.543-7.008-15.543-15.649c0-8.641 6.959-15.65 15.543-15.65s15.543 7.007 15.543 15.65zM48.137 15.65c0 8.135-3.479 14.733-7.772 14.733s-7.772-6.598-7.772-14.733c0-8.136 3.479-14.733 7.771-14.733s7.772 6.596 7.772 14.733zM55.111 15.65c0 7.287-1.224 13.199-2.733 13.199s-2.733-5.91-2.733-13.199 1.224-13.199 2.733-13.199c1.509 0 2.733 5.909 2.733 13.199z"
      />
</symbol>
<symbol id="icon-Telegram" viewBox="0 0 32 32">
<path
        fill="#34aadf"
        style="fill: var(--color1, #34aadf)"
        d="M32 16c0 8.837-7.163 16-16 16s-16-7.163-16-16c0-8.837 7.163-16 16-16s16 7.163 16 16zM17.434 11.422c-2.775 1.156-10.775 4.439-10.775 4.439-1.896 0.74-0.786 1.434-0.786 1.434s1.619 0.555 3.006 0.971c1.387 0.416 2.127-0.046 2.127-0.046s3.237-2.127 6.52-4.393c2.312-1.572 1.757-0.277 1.202 0.277-1.202 1.202-3.191 3.098-4.855 4.624-0.74 0.647-0.37 1.202-0.046 1.48 0.941 0.797 3.159 2.245 4.165 2.903 0.279 0.182 0.465 0.304 0.505 0.334 0.231 0.185 1.526 1.017 2.312 0.832s0.879-1.249 0.879-1.249 0.601-3.792 1.156-7.26c0.103-0.681 0.206-1.348 0.301-1.969 0.249-1.616 0.451-2.927 0.485-3.395 0.139-1.572-1.526-0.925-1.526-0.925s-3.607 1.48-4.671 1.942z"
      />
</symbol>
<symbol id="icon-Discord" viewBox="0 0 41 32">
<path
        fill="#5865f2"
        style="fill: var(--color2, #5865f2)"
        d="M34.882 2.703c4.647 6.974 6.941 14.84 6.084 23.895-0.004 0.038-0.023 0.074-0.054 0.097-3.519 2.637-6.928 4.238-10.289 5.3-0.026 0.008-0.054 0.008-0.080-0.001s-0.048-0.026-0.064-0.049c-0.777-1.103-1.482-2.266-2.1-3.487-0.035-0.072-0.003-0.159 0.070-0.187 1.121-0.431 2.186-0.948 3.211-1.559 0.081-0.048 0.086-0.166 0.011-0.223-0.218-0.165-0.433-0.338-0.639-0.511-0.039-0.032-0.090-0.038-0.134-0.017-6.654 3.137-13.944 3.137-20.677 0-0.044-0.020-0.096-0.013-0.133 0.018-0.206 0.173-0.422 0.345-0.637 0.51-0.075 0.057-0.068 0.175 0.013 0.223 1.025 0.6 2.091 1.128 3.21 1.561 0.072 0.028 0.107 0.113 0.071 0.185-0.605 1.223-1.31 2.385-2.101 3.488-0.034 0.045-0.091 0.065-0.145 0.048-3.345-1.061-6.755-2.662-10.273-5.3-0.029-0.023-0.050-0.060-0.053-0.098-0.717-7.833 0.744-15.764 6.078-23.895 0.013-0.022 0.032-0.038 0.055-0.048 2.624-1.229 5.436-2.134 8.375-2.651 0.053-0.008 0.107 0.017 0.135 0.065 0.363 0.656 0.778 1.498 1.059 2.185 3.098-0.483 6.243-0.483 9.406 0 0.281-0.673 0.681-1.529 1.043-2.185 0.013-0.024 0.033-0.043 0.057-0.055s0.051-0.015 0.078-0.010c2.94 0.518 5.752 1.423 8.374 2.651 0.023 0.010 0.042 0.027 0.053 0.050zM17.446 17.596c0.032-2.316-1.622-4.232-3.698-4.232-2.059 0-3.697 1.899-3.697 4.232s1.67 4.231 3.697 4.231c2.060 0 3.698-1.899 3.698-4.231zM31.117 17.596c0.032-2.316-1.622-4.232-3.697-4.232-2.060 0-3.698 1.899-3.698 4.232s1.67 4.231 3.698 4.231c2.076 0 3.697-1.899 3.697-4.231z"
      />
</symbol>
<symbol id="icon-Twitter" viewBox="0 0 40 32">
<path
        fill="#1da1f2"
        style="fill: var(--color3, #1da1f2)"
        d="M12.518 32c15.021 0 23.236-12.31 23.236-22.985 0-0.35-0.007-0.698-0.023-1.044 1.598-1.144 2.978-2.561 4.074-4.183-1.463 0.644-3.038 1.077-4.69 1.272 1.686-1 2.981-2.582 3.591-4.468-1.603 0.941-3.357 1.604-5.186 1.961-1.49-1.57-3.612-2.552-5.961-2.552-4.51 0-8.167 3.618-8.167 8.077 0 0.634 0.072 1.251 0.212 1.842-6.787-0.338-12.806-3.552-16.834-8.44-0.725 1.233-1.107 2.634-1.106 4.060 0 2.803 1.442 5.277 3.634 6.724-1.297-0.039-2.565-0.386-3.699-1.010-0.001 0.034-0.001 0.067-0.001 0.103 0 3.912 2.815 7.179 6.552 7.919-0.702 0.189-1.426 0.285-2.153 0.284-0.525 0-1.037-0.051-1.535-0.146 1.040 3.21 4.054 5.546 7.629 5.611-2.795 2.167-6.316 3.458-10.143 3.458-0.651 0.001-1.301-0.037-1.948-0.112 3.614 2.292 7.906 3.629 12.519 3.629z"
      />
</symbol>
<symbol id="icon-arrow-up" viewBox="0 0 58 32">
<path
        fill="#9776be"
        style="fill: var(--color4, #9776be)"
        d="M29.36 0.869l24.239 24.239c0.561 0.561 0.87 1.309 0.87 2.107s-0.309 1.546-0.87 2.107l-1.785 1.785c-1.163 1.162-3.053 1.162-4.214 0l-20.354-20.354-20.377 20.377c-0.561 0.561-1.309 0.87-2.107 0.87s-1.546-0.31-2.108-0.87l-1.784-1.785c-0.561-0.561-0.87-1.309-0.87-2.107s0.309-1.546 0.87-2.107l24.261-24.262c0.563-0.562 1.314-0.871 2.113-0.869 0.802-0.002 1.553 0.307 2.115 0.869z"
      />
</symbol>
<symbol id="icon-menu-burger" viewBox="0 0 49 32">
<path
        fill="#fff"
        style="fill: var(--color5, #fff)"
        d="M2.087 0h44.522c1.153 0 2.087 0.934 2.087 2.087s-0.934 2.087-2.087 2.087h-44.522c-1.153 0-2.087-0.934-2.087-2.087s0.934-2.087 2.087-2.087z"
      />
<path
        fill="#fff"
        style="fill: var(--color5, #fff)"
        d="M2.087 13.913h44.522c1.153 0 2.087 0.934 2.087 2.087s-0.934 2.087-2.087 2.087h-44.522c-1.153 0-2.087-0.934-2.087-2.087s0.934-2.087 2.087-2.087z"
      />
<path
        fill="#fff"
        style="fill: var(--color5, #fff)"
        d="M2.087 27.826h44.522c1.153 0 2.087 0.934 2.087 2.087s-0.934 2.087-2.087 2.087h-44.522c-1.153 0-2.087-0.934-2.087-2.087s0.934-2.087 2.087-2.087z"
      />
</symbol>
<symbol id="icon-close" viewBox="0 0 32 32">
<path
        fill="#fff"
        style="fill: var(--color5, #fff)"
        d="M3.771 1.257l26.818 26.818c0.694 0.694 0.694 1.82 0 2.514s-1.82 0.694-2.514 0l-26.818-26.818c-0.694-0.694-0.694-1.82 0-2.514s1.82-0.694 2.514 0z"
      />
<path
        fill="#fff"
        style="fill: var(--color5, #fff)"
        d="M28.219 1.257l-26.818 26.818c-0.694 0.694-0.694 1.82 0 2.514s1.82 0.694 2.514 0l26.818-26.818c0.694-0.694 0.694-1.82 0-2.514s-1.82-0.694-2.514 0z"
      />
</symbol>
<symbol id="icon-arrow-bottom" viewBox="0 0 58 32">
<path
        fill="#fff"
        style="fill: var(--color5, #fff)"
        d="M25.109 31.131l-24.239-24.239c-0.561-0.561-0.87-1.309-0.87-2.107s0.309-1.546 0.87-2.107l1.785-1.785c1.163-1.162 3.053-1.162 4.214 0l20.354 20.354 20.377-20.377c0.561-0.561 1.309-0.87 2.107-0.87s1.546 0.31 2.108 0.87l1.784 1.785c0.561 0.561 0.87 1.309 0.87 2.107s-0.309 1.546-0.87 2.107l-24.261 24.262c-0.563 0.562-1.314 0.871-2.113 0.869-0.802 0.002-1.553-0.307-2.115-0.869z"
      />
</symbol>
</defs>
</svg>
