<svg
  aria-hidden="true"
  style="position: absolute; width: 0; height: 0; overflow: hidden;"
  version="1.1"
  xmlns="http://www.w3.org/2000/svg"
  xmlns:xlink="http://www.w3.org/1999/xlink"
>
<defs>
<symbol id="icon-discord" viewBox="0 0 42 32">
<path
        d="M35.642 2.703c4.748 6.974 7.093 14.84 6.216 23.895-0.004 0.038-0.024 0.074-0.055 0.097-3.595 2.637-7.079 4.238-10.513 5.3-0.027 0.008-0.055 0.008-0.082-0.001s-0.049-0.026-0.066-0.049c-0.793-1.103-1.514-2.266-2.146-3.487-0.036-0.072-0.003-0.159 0.071-0.187 1.145-0.431 2.234-0.948 3.281-1.559 0.083-0.048 0.088-0.166 0.012-0.223-0.222-0.165-0.442-0.338-0.653-0.511-0.039-0.032-0.093-0.038-0.137-0.017-6.799 3.137-14.248 3.137-21.127 0-0.045-0.020-0.098-0.013-0.136 0.018-0.21 0.173-0.431 0.345-0.651 0.51-0.076 0.057-0.070 0.175 0.013 0.223 1.047 0.6 2.136 1.128 3.28 1.561 0.074 0.028 0.109 0.113 0.073 0.185-0.618 1.223-1.339 2.385-2.147 3.488-0.035 0.045-0.093 0.065-0.148 0.048-3.418-1.061-6.902-2.662-10.497-5.299-0.030-0.023-0.051-0.060-0.055-0.098-0.733-7.833 0.76-15.764 6.21-23.895 0.013-0.022 0.033-0.038 0.056-0.048 2.682-1.229 5.554-2.134 8.557-2.651 0.055-0.008 0.109 0.017 0.138 0.065 0.371 0.656 0.795 1.498 1.082 2.185 3.165-0.483 6.379-0.483 9.611 0 0.287-0.673 0.696-1.529 1.066-2.185 0.013-0.024 0.034-0.043 0.058-0.055s0.053-0.015 0.079-0.010c3.004 0.518 5.877 1.423 8.557 2.651 0.024 0.010 0.043 0.027 0.055 0.050zM17.826 17.596c0.033-2.316-1.657-4.232-3.778-4.232-2.104 0-3.778 1.899-3.778 4.232s1.707 4.231 3.778 4.231c2.105 0 3.778-1.899 3.778-4.231zM31.795 17.596c0.033-2.316-1.657-4.232-3.778-4.232-2.105 0-3.778 1.899-3.778 4.232s1.707 4.231 3.778 4.231c2.121 0 3.778-1.899 3.778-4.231z"
      />
</symbol>
<symbol id="icon-medium" viewBox="0 0 56 32">
<path
        d="M31.782 16c0 8.836-7.115 16-15.891 16s-15.891-7.165-15.891-16c0-8.835 7.115-16 15.891-16s15.891 7.164 15.891 16zM49.215 16c0 8.318-3.557 15.063-7.946 15.063s-7.946-6.745-7.946-15.063c0-8.318 3.557-15.063 7.945-15.063s7.946 6.743 7.946 15.063zM56.345 16c0 7.451-1.251 13.494-2.794 13.494s-2.794-6.042-2.794-13.494c0-7.452 1.251-13.494 2.794-13.494s2.794 6.041 2.794 13.494z"
      />
</symbol>
<symbol id="icon-telegram" viewBox="0 0 39 32">
<path
        d="M2.375 13.936c0 0 17.132-7.025 23.074-9.498 2.278-0.989 10.002-4.155 10.002-4.155s3.565-1.385 3.268 1.979c-0.099 1.385-0.891 6.233-1.684 11.477-1.188 7.42-2.476 15.533-2.476 15.533s-0.198 2.276-1.882 2.671c-1.683 0.396-4.456-1.385-4.952-1.781-0.396-0.297-7.427-4.749-10.002-6.926-0.693-0.594-1.485-1.781 0.099-3.166 3.565-3.265 7.823-7.322 10.398-9.894 1.188-1.187 2.377-3.958-2.575-0.594-7.031 4.848-13.963 9.399-13.963 9.399s-1.585 0.989-4.555 0.099c-2.971-0.89-6.437-2.078-6.437-2.078s-2.377-1.484 1.684-3.067z"
      />
</symbol>
<symbol id="icon-x" viewBox="0 0 34 32">
<path
        d="M0.083 0l13.2 17.65-13.284 14.35h2.99l11.63-12.564 9.396 12.564h10.174l-13.943-18.643 12.364-13.357h-2.99l-10.71 11.571-8.654-11.571h-10.174zM4.48 2.202h4.674l20.639 27.595h-4.674l-20.639-27.595z"
      />
</symbol>
</defs>
</svg>
