<svg width="2816" height="1534" viewBox="0 0 2816 1534" fill="none" xmlns="http://www.w3.org/2000/svg">
<g opacity="0.2">
<path d="M1273.74 864.038C1246.97 967.738 1081.41 1062.28 1071.32 1162.92C1061.22 1263.56 972.12 1379.46 865.92 1364.21C759.721 1348.97 723.177 1391.66 674.457 1419.11C625.736 1446.55 412.559 1393.87 510.007 1223.5C607.455 1053.13 623.156 1061.15 611.514 932.012C599.871 802.872 545.092 755.216 599.904 602.73C654.717 450.244 979.676 460.053 979.676 460.053L1273.74 864.038Z" fill="url(#paint0_linear_82_824)"/>
<path d="M429.148 1533.36C318.879 1519.59 225.824 1400.41 207.21 1313.25C195.69 1259.33 105.993 1230.81 67.9663 1189.7C18.8223 1136.57 -12.3906 1065.08 4.7341 988.596C18.7235 926.065 49.2452 868.538 89.1068 820.245C130.334 770.277 133.453 688.34 118.731 632.033C103.516 573.954 5.38432 503.714 24.3935 399.065C51.2367 251.274 196.282 175.915 333.123 277.795C506.378 406.798 980.158 667.738 1007.84 888.514C1049.93 1224.27 658.048 1040.06 619.042 1370.75C609.266 1453.36 501.597 1542.41 429.148 1533.36Z" fill="url(#paint1_linear_82_824)"/>
<path opacity="0.61" d="M1136.03 669C1029.84 681.717 914.171 833.403 813.225 829.986C712.279 826.568 585.693 899.513 586.597 1006.95C587.502 1114.39 369.381 1088.25 360.452 1143.5C328.429 1341.54 526.182 1171.4 666.318 1308.75C764.868 1405.31 854.072 1288.41 980.315 1317.21C1106.56 1346.02 1145.12 1400.17 1304.61 1372.74C1420.63 1352.77 1518.84 1216.45 1513.42 1094.53C1506.1 930.09 1367.29 771.84 1367.29 771.84L1136.03 669Z" fill="url(#paint2_linear_82_824)"/>
</g>
<g opacity="0.2">
<path d="M1887.72 461.054C1907.21 536.58 2027.79 605.44 2035.15 678.737C2042.5 752.035 2107.39 836.448 2184.74 825.342C2262.09 814.236 2288.7 845.334 2324.19 865.322C2359.67 885.31 2514.93 846.942 2443.96 722.857C2372.99 598.772 2361.55 604.616 2370.03 510.561C2378.51 416.505 2418.41 381.797 2378.48 270.738C2338.56 159.68 2101.89 166.824 2101.89 166.824L1887.72 461.054Z" fill="url(#paint3_linear_82_824)"/>
<path d="M2502.85 948.536C2583.16 938.503 2650.93 851.705 2664.49 788.221C2672.88 748.953 2738.21 728.178 2765.91 698.241C2801.7 659.543 2824.43 607.474 2811.96 551.772C2801.77 506.229 2779.54 464.331 2750.51 429.158C2720.48 392.766 2718.21 333.09 2728.93 292.08C2740.01 249.78 2811.48 198.623 2797.64 122.405C2778.09 14.7656 2672.45 -40.1196 2572.79 34.0815C2446.6 128.037 2101.54 318.085 2081.38 478.88C2050.72 723.417 2336.14 589.257 2364.55 830.101C2371.67 890.27 2450.08 955.129 2502.85 948.536Z" fill="url(#paint4_linear_82_824)"/>
<path opacity="0.61" d="M1988.01 319.004C2065.35 328.266 2149.6 438.742 2223.12 436.253C2296.64 433.764 2388.83 486.891 2388.18 565.142C2387.52 643.394 2546.38 624.354 2552.88 664.594C2576.21 808.831 2432.18 684.914 2330.11 784.944C2258.34 855.276 2193.37 770.131 2101.42 791.11C2009.48 812.09 1981.39 851.531 1865.23 831.548C1780.74 817.005 1709.21 717.721 1713.16 628.923C1718.49 509.161 1819.58 393.904 1819.58 393.904L1988.01 319.004Z" fill="url(#paint5_linear_82_824)"/>
</g>
<defs>
<linearGradient id="paint0_linear_82_824" x1="474.546" y1="1305.16" x2="1036.94" y2="692.964" gradientUnits="userSpaceOnUse">
<stop stop-color="#D9D9D9" stop-opacity="0"/>
<stop offset="0.484375"/>
<stop offset="0.994792" stop-color="#C4C4C4" stop-opacity="0.49"/>
</linearGradient>
<linearGradient id="paint1_linear_82_824" x1="69.2335" y1="1328.27" x2="734.994" y2="372.3" gradientUnits="userSpaceOnUse">
<stop stop-color="#C9C9C9" stop-opacity="0"/>
<stop offset="1" stop-color="#C9C9C9" stop-opacity="0.53"/>
</linearGradient>
<linearGradient id="paint2_linear_82_824" x1="1051.53" y1="1644.55" x2="852.373" y2="771.754" gradientUnits="userSpaceOnUse">
<stop stop-color="#C9C9C9" stop-opacity="0"/>
<stop offset="1" stop-color="#C9C9C9"/>
</linearGradient>
<linearGradient id="paint3_linear_82_824" x1="2469.79" y1="782.329" x2="2060.19" y2="336.457" gradientUnits="userSpaceOnUse">
<stop stop-color="#D9D9D9" stop-opacity="0"/>
<stop offset="0.484375"/>
<stop offset="0.994792" stop-color="#C4C4C4" stop-opacity="0.49"/>
</linearGradient>
<linearGradient id="paint4_linear_82_824" x1="2764.98" y1="799.163" x2="2280.1" y2="102.912" gradientUnits="userSpaceOnUse">
<stop stop-color="#C9C9C9" stop-opacity="0"/>
<stop offset="1" stop-color="#C9C9C9" stop-opacity="0.53"/>
</linearGradient>
<linearGradient id="paint5_linear_82_824" x1="2049.55" y1="1029.52" x2="2194.61" y2="393.842" gradientUnits="userSpaceOnUse">
<stop stop-color="#C9C9C9" stop-opacity="0"/>
<stop offset="1" stop-color="#C9C9C9"/>
</linearGradient>
</defs>
</svg>
