<svg width="67" height="51" viewBox="0 0 67 51" fill="none" xmlns="http://www.w3.org/2000/svg">
<path id="Vector" d="M56.8048 4.30733C64.3716 15.4216 68.1085 27.9582 66.7115 42.3906C66.7057 42.4517 66.6739 42.5078 66.6236 42.5446C60.8934 46.748 55.3417 49.299 49.8678 50.9907C49.8251 51.0036 49.7795 51.0029 49.7373 50.9887C49.6951 50.9744 49.6585 50.9473 49.6324 50.9112C48.3678 49.1534 47.2188 47.3002 46.2121 45.3541C46.1543 45.2395 46.2071 45.1014 46.326 45.0562C48.1509 44.3693 49.8862 43.5461 51.5553 42.5713C51.6868 42.4944 51.6952 42.3061 51.5737 42.2158C51.2195 41.953 50.8686 41.6769 50.5327 41.4008C50.4699 41.3498 50.3853 41.3398 50.3142 41.3741C39.4778 46.3731 27.6071 46.3731 16.6425 41.3741C16.5713 41.3423 16.4867 41.3532 16.4256 41.4034C16.0906 41.6795 15.7389 41.953 15.388 42.2158C15.2665 42.3061 15.2766 42.4944 15.4089 42.5713C17.078 43.5276 18.8133 44.3693 20.6357 45.0596C20.7538 45.1048 20.8099 45.2395 20.7513 45.3541C19.7664 47.3027 18.6173 49.1559 17.3293 50.9137C17.2732 50.9848 17.181 51.0175 17.0939 50.9907C11.646 49.299 6.09423 46.748 0.364063 42.5446C0.316326 42.5078 0.281988 42.4492 0.276963 42.3881C-0.89051 29.9042 1.48882 17.2639 10.1745 4.30482C10.1955 4.27052 10.2273 4.24374 10.2641 4.22785C14.5379 2.26838 19.1165 0.826805 23.902 0.00352697C23.9891 -0.00985966 24.0762 0.0303002 24.1214 0.107273C24.7127 1.1531 25.3885 2.49428 25.8458 3.59031C30.89 2.82058 36.013 2.82058 41.1628 3.59031C41.6201 2.5177 42.2725 1.1531 42.8613 0.107273C42.8822 0.0690878 42.9147 0.0384956 42.9541 0.0198643C42.9935 0.00123301 43.0378 -0.00448488 43.0807 0.00352697C47.8687 0.829315 52.4473 2.27089 56.7177 4.22785C56.7554 4.24374 56.7863 4.27051 56.8048 4.30733ZM28.4102 28.0435C28.463 24.353 25.7696 21.2991 22.3886 21.2991C19.0353 21.2991 16.3678 24.3262 16.3678 28.0435C16.3678 31.76 19.088 34.787 22.3886 34.787C25.7428 34.787 28.4102 31.76 28.4102 28.0435ZM50.6726 28.0435C50.7254 24.353 48.032 21.2991 44.6518 21.2991C41.2976 21.2991 38.6302 24.3262 38.6302 28.0435C38.6302 31.76 41.3504 34.787 44.6518 34.787C48.032 34.787 50.6726 31.76 50.6726 28.0435Z" fill="#5865F2"/>
</svg>
