<svg width="90" height="51" viewBox="0 0 90 51" fill="none" xmlns="http://www.w3.org/2000/svg">
<g id="Layer 2">
<path id="Layer 1" d="M50.6524 25.5004C50.6524 39.5835 39.3133 51 25.3266 51C11.3399 51 0 39.5809 0 25.5004C0 11.42 11.3391 0 25.3266 0C39.3142 0 50.6524 11.4174 50.6524 25.5004ZM78.4356 25.5004C78.4356 38.7566 72.7661 49.5071 65.7723 49.5071C58.7785 49.5071 53.109 38.7566 53.109 25.5004C53.109 12.2443 58.7776 1.49375 65.7714 1.49375C72.7652 1.49375 78.4347 12.2408 78.4347 25.5004M89.7996 25.5004C89.7996 37.3747 87.8059 47.0066 85.3459 47.0066C82.8859 47.0066 80.893 37.3773 80.893 25.5004C80.893 13.6236 82.8867 3.99423 85.3459 3.99423C87.8051 3.99423 89.7996 13.6227 89.7996 25.5004Z" fill="#FFF8F8"/>
</g>
</svg>
