<svg width="69" height="57" viewBox="0 0 69 57" fill="none" xmlns="http://www.w3.org/2000/svg">
<path id="Vector" d="M4.23027 24.8236C4.23027 24.8236 34.7473 12.3111 45.3311 7.90509C49.3884 6.14284 63.1475 0.503162 63.1475 0.503162C63.1475 0.503162 69.4979 -1.96398 68.9687 4.0279C68.7922 6.49529 67.381 15.1307 65.9699 24.4712C63.853 37.6889 61.5598 52.14 61.5598 52.14C61.5598 52.14 61.2071 56.1936 58.2083 56.8985C55.2096 57.6034 50.2703 54.4313 49.3884 53.7262C48.6826 53.1976 36.1584 45.2669 31.5721 41.3897C30.3372 40.3324 28.9261 38.2177 31.7484 35.7503C38.0988 29.9345 45.6839 22.7089 50.2703 18.1269C52.3872 16.0119 54.5038 11.0774 45.6839 17.0693C33.1597 25.7049 20.8118 33.8117 20.8118 33.8117C20.8118 33.8117 17.9893 35.5739 12.6974 33.9878C7.40527 32.4019 1.2313 30.287 1.2313 30.287C1.2313 30.287 -3.00203 27.6435 4.23027 24.8236Z" fill="#34AADF"/>
</svg>
